<?xml version="1.0" standalone="no"?>
<!DOCTYPE svg PUBLIC "-//W3C//DTD SVG 20010904//EN"
 "http://www.w3.org/TR/2001/REC-SVG-20010904/DTD/svg10.dtd">
<svg version="1.0" xmlns="http://www.w3.org/2000/svg"
 width="16.000000pt" height="16.000000pt" viewBox="0 0 16.000000 16.000000"
 preserveAspectRatio="xMidYMid meet">
<metadata>
Created by potrace 1.11, written by Peter Selinger 2001-2013
</metadata>
<g transform="translate(0.000000,16.000000) scale(0.002667,-0.002667)"
fill="#000000" stroke="none">
<path d="M2947 4784 c-1 -1 -40 -4 -87 -8 -228 -17 -439 -75 -644 -176 -96
-47 -263 -149 -296 -181 -8 -8 -32 -26 -52 -41 -71 -53 -218 -208 -291 -306
-172 -232 -297 -517 -332 -762 -4 -24 -8 -47 -10 -50 -7 -11 -18 -174 -18
-259 0 -514 227 -1013 609 -1342 84 -72 96 -81 177 -136 833 -566 1970 -324
2510 535 114 181 213 438 241 622 3 19 8 45 10 57 20 98 24 341 7 468 -17 126
-20 143 -51 260 -108 411 -373 779 -730 1016 -291 194 -610 294 -963 302 -43
1 -79 2 -80 1z m238 -78 c215 -22 454 -98 650 -208 480 -269 799 -744 868
-1293 13 -101 14 -326 3 -400 -26 -163 -29 -177 -61 -290 -138 -474 -494 -881
-945 -1080 -1053 -464 -2241 199 -2401 1339 -28 204 -13 454 41 658 114 433
392 805 777 1038 149 90 379 182 517 206 17 3 49 9 71 14 22 5 74 12 115 16
41 3 76 7 77 8 5 4 226 -2 288 -8z"/>
<path d="M2908 4225 c-2 -1 -28 -5 -58 -9 -132 -14 -257 -51 -390 -115 -93
-45 -125 -65 -215 -136 -303 -237 -469 -579 -468 -965 0 -404 180 -757 503
-991 171 -123 329 -189 540 -223 79 -12 274 -14 350 -2 279 44 504 158 700
355 225 226 349 520 355 834 4 270 -66 505 -217 725 -177 258 -487 460 -778
507 -19 3 -48 8 -64 11 -30 7 -252 14 -258 9z m326 -89 c420 -90 763 -408 880
-816 33 -116 40 -173 40 -320 0 -146 -6 -194 -34 -299 -113 -413 -459 -747
-862 -830 -29 -6 -64 -14 -78 -17 -54 -13 -278 -12 -361 2 -498 80 -897 483
-966 976 -9 64 -9 273 0 344 11 87 67 255 115 348 173 336 479 559 850 620
103 17 317 13 416 -8z"/>
<path d="M2366 3450 c-2 -3 -3 -179 -3 -392 l0 -388 23 0 24 0 2 344 3 344
145 -249 c140 -241 145 -249 160 -228 9 11 74 122 145 245 70 123 130 224 134
224 3 0 6 -153 5 -340 l-1 -340 24 0 23 0 0 393 0 394 -27 -2 c-23 -1 -41 -26
-165 -240 -76 -132 -138 -243 -138 -247 0 -18 -20 -6 -33 20 -25 47 -258 446
-269 459 -9 11 -47 14 -52 3z"/>
<path d="M3199 3436 c-1 -28 -1 -715 0 -743 1 -21 6 -23 49 -23 71 0 179 26
228 55 144 85 220 277 174 445 -47 173 -183 275 -378 284 -67 3 -72 2 -73 -18z
m151 -41 c59 -11 117 -42 164 -88 153 -154 126 -418 -55 -533 -40 -25 -139
-54 -186 -54 l-28 0 1 338 c1 185 2 340 3 344 1 8 32 6 101 -7z"/>
</g>
</svg>
